<?xml version="1.0" standalone="no"?>
<!DOCTYPE svg PUBLIC "-//W3C//DTD SVG 20010904//EN"
 "http://www.w3.org/TR/2001/REC-SVG-20010904/DTD/svg10.dtd">
<svg version="1.0" xmlns="http://www.w3.org/2000/svg"
 width="206.000000pt" height="96.000000pt" viewBox="0 0 206.000000 96.000000"
 preserveAspectRatio="xMidYMid meet">

<g transform="translate(0.000000,96.000000) scale(0.100000,-0.100000)"
fill="#FFBB38" stroke="none">
<path d="M1054 485 c0 -154 2 -216 3 -137 2 79 2 205 0 280 -1 75 -3 11 -3
-143z"/>
<path d="M30 480 l0 -230 60 0 60 0 0 90 c0 50 3 90 8 90 4 0 38 -41 75 -90
l68 -90 75 0 74 0 -95 120 -96 120 79 97 c43 54 82 104 86 111 5 9 -9 12 -62
12 l-69 0 -64 -84 c-40 -53 -67 -80 -71 -73 -4 7 -8 45 -8 85 l0 72 -60 0 -60
0 0 -230z"/>
<path d="M500 480 l0 -230 118 0 c142 0 181 10 221 56 49 55 40 122 -24 176
-12 10 -15 17 -7 18 19 0 52 61 52 95 -1 39 -20 72 -56 96 -25 16 -47 19 -166
19 l-138 0 0 -230z m219 121 c39 -39 8 -71 -66 -71 -32 0 -33 2 -33 38 0 21 3
42 7 45 14 15 74 6 92 -12z m23 -187 c11 -23 10 -29 -12 -46 -16 -13 -35 -18
-64 -16 -41 3 -41 4 -44 46 l-3 42 56 0 c50 0 57 -2 67 -26z"/>
<path d="M1250 630 c0 -40 4 -70 10 -70 6 0 10 14 10 30 0 17 3 30 6 30 3 0
17 -13 31 -30 13 -16 32 -30 40 -30 11 0 8 8 -11 31 -31 37 -32 39 -5 73 31
40 12 47 -22 8 -16 -17 -31 -32 -34 -32 -3 0 -5 14 -5 30 0 17 -4 30 -10 30
-6 0 -10 -30 -10 -70z"/>
<path d="M1420 630 l0 -70 31 0 c17 0 39 5 50 10 21 12 26 46 8 52 -9 3 -9 9
0 25 15 29 -9 53 -55 53 l-34 0 0 -70z m65 30 c0 -8 -10 -16 -22 -18 -18 -3
-23 2 -23 18 0 16 5 21 23 18 12 -2 22 -10 22 -18z m3 -57 c-2 -10 -13 -19
-26 -21 -17 -3 -22 2 -22 17 0 16 6 21 26 21 19 0 25 -5 22 -17z"/>
<path d="M1250 330 l0 -70 31 0 c17 0 39 5 50 10 20 11 26 45 9 55 -6 4 -5 13
3 26 10 17 9 22 -7 35 -11 8 -35 14 -53 14 l-33 0 0 -70z m68 27 c3 -12 -3
-17 -22 -17 -25 0 -35 18 -19 34 12 12 38 2 41 -17z m0 -54 c-2 -10 -13 -19
-26 -21 -17 -3 -22 2 -22 17 0 16 6 21 26 21 19 0 25 -5 22 -17z"/>
<path d="M1425 375 c-14 -13 -25 -33 -25 -45 0 -27 43 -70 70 -70 27 0 70 43
70 70 0 12 -11 32 -25 45 -13 14 -33 25 -45 25 -11 0 -32 -11 -45 -25z m81
-31 c10 -39 -2 -56 -38 -52 -28 3 -33 7 -36 33 -6 53 61 71 74 19z"/>
<path d="M1611 334 c-23 -64 -21 -95 3 -61 17 22 55 22 71 1 27 -38 31 -6 7
59 -32 88 -50 88 -81 1z m49 17 c0 -5 3 -16 6 -25 4 -12 0 -16 -16 -16 -16 0
-20 4 -16 16 3 9 6 20 6 25 0 5 5 9 10 9 6 0 10 -4 10 -9z"/>
<path d="M1770 330 c0 -54 3 -70 14 -70 9 0 16 12 18 33 l3 32 18 -32 c10 -18
24 -33 33 -33 13 0 13 3 0 29 -14 26 -14 30 -1 35 22 8 19 53 -4 66 -11 5 -33
10 -50 10 l-31 0 0 -70z m65 25 c0 -11 -8 -21 -17 -23 -14 -3 -18 3 -18 23 0
20 4 26 18 23 9 -2 17 -12 17 -23z"/>
<path d="M1930 330 l0 -73 42 6 c45 6 78 35 78 67 0 32 -33 61 -78 67 l-42 6
0 -73z m83 26 c4 -6 6 -22 5 -36 -2 -19 -10 -26 -30 -28 -27 -3 -28 -2 -28 43
0 43 1 46 23 39 12 -4 25 -12 30 -18z"/>
</g>
</svg>
